<?xml version="1.0" encoding="utf-8" standalone="no"?>
<!DOCTYPE svg PUBLIC "-//W3C//DTD SVG 1.1//EN"
  "http://www.w3.org/Graphics/SVG/1.1/DTD/svg11.dtd">
<svg xmlns:xlink="http://www.w3.org/1999/xlink" width="720pt" height="468pt" viewBox="0 0 720 468" xmlns="http://www.w3.org/2000/svg" version="1.1">
 <metadata>
  <rdf:RDF xmlns:dc="http://purl.org/dc/elements/1.1/" xmlns:cc="http://creativecommons.org/ns#" xmlns:rdf="http://www.w3.org/1999/02/22-rdf-syntax-ns#">
   <cc:Work>
    <dc:type rdf:resource="http://purl.org/dc/dcmitype/StillImage"/>
    <dc:date>2026-09-25T13:39:08.298290</dc:date>
    <dc:format>image/svg+xml</dc:format>
    <dc:creator>
     <cc:Agent>
      <dc:title>Matplotlib v3.11.2, https://matplotlib.org/</dc:title>
     </cc:Agent>
    </dc:creator>
   </cc:Work>
  </rdf:RDF>
 </metadata>
 <defs>
  <style type="text/css">*{stroke-linejoin: round; stroke-linecap: butt}</style>
 </defs>
 <g id="figure_1">
  <g id="patch_1">
   <path d="M 0 468
L 720 468
L 720 0
L 0 0
z
" style="fill: #ffffff"/>
  </g>
  <g id="axes_1">
   <g id="patch_2">
    <path d="M 39.904146 433.998979
L 716.99976 433.998979
L 716.99976 18.118365
L 39.904146 18.118365
z
" style="fill: #ffffff"/>
   </g>
   <g id="matplotlib.axis_1">
    <g id="xtick_1">
     <g id="line2d_1">
      <defs>
       <path id="mc33c48d78d" d="M 0 0
L 0 3.5
" style="stroke: #000000; stroke-width: 0.8"/>
      </defs>
      <g>
       <use xlink:href="#mc33c48d78d" x="70.68122" y="433.998979" style="stroke: #000000; stroke-width: 0.8"/>
      </g>
     </g>
     <g id="text_1">
      <!-- 0.0 -->
      <g transform="translate(62.729657 448.596635) scale(0.1 -0.1)">
       <defs>
        <path id="DejaVuSans-13" d="M 2034 4250
Q 1547 4250 1301 3770
Q 1056 3291 1056 2328
Q 1056 1369 1301 889
Q 1547 409 2034 409
Q 2525 409 2770 889
Q 3016 1369 3016 2328
Q 3016 3291 2770 3770
Q 2525 4250 2034 4250
z
M 2034 4750
Q 2819 4750 3233 4129
Q 3647 3509 3647 2328
Q 3647 1150 3233 529
Q 2819 -91 2034 -91
Q 1250 -91 836 529
Q 422 1150 422 2328
Q 422 3509 836 4129
Q 1250 4750 2034 4750
z
" transform="scale(0.015625)"/>
        <path id="DejaVuSans-11" d="M 684 794
L 1344 794
L 1344 0
L 684 0
L 684 794
z
" transform="scale(0.015625)"/>
       </defs>
       <use xlink:href="#DejaVuSans-13"/>
       <use xlink:href="#DejaVuSans-11" transform="translate(63.625 0)"/>
       <use xlink:href="#DejaVuSans-13" transform="translate(95.40625 0)"/>
      </g>
     </g>
    </g>
    <g id="xtick_2">
     <g id="line2d_2">
      <g>
       <use xlink:href="#mc33c48d78d" x="193.789513" y="433.998979" style="stroke: #000000; stroke-width: 0.8"/>
      </g>
     </g>
     <g id="text_2">
      <!-- 0.2 -->
      <g transform="translate(185.837951 448.596635) scale(0.1 -0.1)">
       <defs>
        <path id="DejaVuSans-15" d="M 1228 531
L 3431 531
L 3431 0
L 469 0
L 469 531
Q 828 903 1448 1529
Q 2069 2156 2228 2338
Q 2531 2678 2651 2914
Q 2772 3150 2772 3378
Q 2772 3750 2511 3984
Q 2250 4219 1831 4219
Q 1534 4219 1204 4116
Q 875 4013 500 3803
L 500 4441
Q 881 4594 1212 4672
Q 1544 4750 1819 4750
Q 2544 4750 2975 4387
Q 3406 4025 3406 3419
Q 3406 3131 3298 2873
Q 3191 2616 2906 2266
Q 2828 2175 2409 1742
Q 1991 1309 1228 531
z
" transform="scale(0.015625)"/>
       </defs>
       <use xlink:href="#DejaVuSans-13"/>
       <use xlink:href="#DejaVuSans-11" transform="translate(63.625 0)"/>
       <use xlink:href="#DejaVuSans-15" transform="translate(95.40625 0)"/>
      </g>
     </g>
    </g>
    <g id="xtick_3">
     <g id="line2d_3">
      <g>
       <use xlink:href="#mc33c48d78d" x="316.897806" y="433.998979" style="stroke: #000000; stroke-width: 0.8"/>
      </g>
     </g>
     <g id="text_3">
      <!-- 0.4 -->
      <g transform="translate(308.946244 448.596635) scale(0.1 -0.1)">
       <defs>
        <path id="DejaVuSans-17" d="M 2419 4116
L 825 1625
L 2419 1625
L 2419 4116
z
M 2253 4666
L 3047 4666
L 3047 1625
L 3713 1625
L 3713 1100
L 3047 1100
L 3047 0
L 2419 0
L 2419 1100
L 313 1100
L 313 1709
L 2253 4666
z
" transform="scale(0.015625)"/>
       </defs>
       <use xlink:href="#DejaVuSans-13"/>
       <use xlink:href="#DejaVuSans-11" transform="translate(63.625 0)"/>
       <use xlink:href="#DejaVuSans-17" transform="translate(95.40625 0)"/>
      </g>
     </g>
    </g>
    <g id="xtick_4">
     <g id="line2d_4">
      <g>
       <use xlink:href="#mc33c48d78d" x="440.0061" y="433.998979" style="stroke: #000000; stroke-width: 0.8"/>
      </g>
     </g>
     <g id="text_4">
      <!-- 0.6 -->
      <g transform="translate(432.054537 448.596635) scale(0.1 -0.1)">
       <defs>
        <path id="DejaVuSans-19" d="M 2113 2584
Q 1688 2584 1439 2293
Q 1191 2003 1191 1497
Q 1191 994 1439 701
Q 1688 409 2113 409
Q 2538 409 2786 701
Q 3034 994 3034 1497
Q 3034 2003 2786 2293
Q 2538 2584 2113 2584
z
M 3366 4563
L 3366 3988
Q 3128 4100 2886 4159
Q 2644 4219 2406 4219
Q 1781 4219 1451 3797
Q 1122 3375 1075 2522
Q 1259 2794 1537 2939
Q 1816 3084 2150 3084
Q 2853 3084 3261 2657
Q 3669 2231 3669 1497
Q 3669 778 3244 343
Q 2819 -91 2113 -91
Q 1303 -91 875 529
Q 447 1150 447 2328
Q 447 3434 972 4092
Q 1497 4750 2381 4750
Q 2619 4750 2861 4703
Q 3103 4656 3366 4563
z
" transform="scale(0.015625)"/>
       </defs>
       <use xlink:href="#DejaVuSans-13"/>
       <use xlink:href="#DejaVuSans-11" transform="translate(63.625 0)"/>
       <use xlink:href="#DejaVuSans-19" transform="translate(95.40625 0)"/>
      </g>
     </g>
    </g>
    <g id="xtick_5">
     <g id="line2d_5">
      <g>
       <use xlink:href="#mc33c48d78d" x="563.114393" y="433.998979" style="stroke: #000000; stroke-width: 0.8"/>
      </g>
     </g>
     <g id="text_5">
      <!-- 0.8 -->
      <g transform="translate(555.162831 448.596635) scale(0.1 -0.1)">
       <defs>
        <path id="DejaVuSans-1b" d="M 2034 2216
Q 1584 2216 1326 1975
Q 1069 1734 1069 1313
Q 1069 891 1326 650
Q 1584 409 2034 409
Q 2484 409 2743 651
Q 3003 894 3003 1313
Q 3003 1734 2745 1975
Q 2488 2216 2034 2216
z
M 1403 2484
Q 997 2584 770 2862
Q 544 3141 544 3541
Q 544 4100 942 4425
Q 1341 4750 2034 4750
Q 2731 4750 3128 4425
Q 3525 4100 3525 3541
Q 3525 3141 3298 2862
Q 3072 2584 2669 2484
Q 3125 2378 3379 2068
Q 3634 1759 3634 1313
Q 3634 634 3220 271
Q 2806 -91 2034 -91
Q 1263 -91 848 271
Q 434 634 434 1313
Q 434 1759 690 2068
Q 947 2378 1403 2484
z
M 1172 3481
Q 1172 3119 1398 2916
Q 1625 2713 2034 2713
Q 2441 2713 2670 2916
Q 2900 3119 2900 3481
Q 2900 3844 2670 4047
Q 2441 4250 2034 4250
Q 1625 4250 1398 4047
Q 1172 3844 1172 3481
z
" transform="scale(0.015625)"/>
       </defs>
       <use xlink:href="#DejaVuSans-13"/>
       <use xlink:href="#DejaVuSans-11" transform="translate(63.625 0)"/>
       <use xlink:href="#DejaVuSans-1b" transform="translate(95.40625 0)"/>
      </g>
     </g>
    </g>
    <g id="xtick_6">
     <g id="line2d_6">
      <g>
       <use xlink:href="#mc33c48d78d" x="686.222687" y="433.998979" style="stroke: #000000; stroke-width: 0.8"/>
      </g>
     </g>
     <g id="text_6">
      <!-- 1.0 -->
      <g transform="translate(678.271124 448.596635) scale(0.1 -0.1)">
       <defs>
        <path id="DejaVuSans-14" d="M 794 531
L 1825 531
L 1825 4091
L 703 3866
L 703 4441
L 1819 4666
L 2450 4666
L 2450 531
L 3481 531
L 3481 0
L 794 0
L 794 531
z
" transform="scale(0.015625)"/>
       </defs>
       <use xlink:href="#DejaVuSans-14"/>
       <use xlink:href="#DejaVuSans-11" transform="translate(63.625 0)"/>
       <use xlink:href="#DejaVuSans-13" transform="translate(95.40625 0)"/>
      </g>
     </g>
    </g>
    <g id="text_7">
     <!-- Probability (Model) -->
     <g transform="translate(331.516797 462.597416) scale(0.1 -0.1)">
      <defs>
       <path id="DejaVuSans-33" d="M 1259 4147
L 1259 2394
L 2053 2394
Q 2494 2394 2734 2622
Q 2975 2850 2975 3272
Q 2975 3691 2734 3919
Q 2494 4147 2053 4147
L 1259 4147
z
M 628 4666
L 2053 4666
Q 2838 4666 3239 4311
Q 3641 3956 3641 3272
Q 3641 2581 3239 2228
Q 2838 1875 2053 1875
L 1259 1875
L 1259 0
L 628 0
L 628 4666
z
" transform="scale(0.015625)"/>
       <path id="DejaVuSans-55" d="M 2631 2963
Q 2534 3019 2420 3045
Q 2306 3072 2169 3072
Q 1681 3072 1420 2755
Q 1159 2438 1159 1844
L 1159 0
L 581 0
L 581 3500
L 1159 3500
L 1159 2956
Q 1341 3275 1631 3429
Q 1922 3584 2338 3584
Q 2397 3584 2469 3576
Q 2541 3569 2628 3553
L 2631 2963
z
" transform="scale(0.015625)"/>
       <path id="DejaVuSans-52" d="M 1959 3097
Q 1497 3097 1228 2736
Q 959 2375 959 1747
Q 959 1119 1226 758
Q 1494 397 1959 397
Q 2419 397 2687 759
Q 2956 1122 2956 1747
Q 2956 2369 2687 2733
Q 2419 3097 1959 3097
z
M 1959 3584
Q 2709 3584 3137 3096
Q 3566 2609 3566 1747
Q 3566 888 3137 398
Q 2709 -91 1959 -91
Q 1206 -91 779 398
Q 353 888 353 1747
Q 353 2609 779 3096
Q 1206 3584 1959 3584
z
" transform="scale(0.015625)"/>
       <path id="DejaVuSans-45" d="M 3116 1747
Q 3116 2381 2855 2742
Q 2594 3103 2138 3103
Q 1681 3103 1420 2742
Q 1159 2381 1159 1747
Q 1159 1113 1420 752
Q 1681 391 2138 391
Q 2594 391 2855 752
Q 3116 1113 3116 1747
z
M 1159 2969
Q 1341 3281 1617 3432
Q 1894 3584 2278 3584
Q 2916 3584 3314 3078
Q 3713 2572 3713 1747
Q 3713 922 3314 415
Q 2916 -91 2278 -91
Q 1894 -91 1617 61
Q 1341 213 1159 525
L 1159 0
L 581 0
L 581 4863
L 1159 4863
L 1159 2969
z
" transform="scale(0.015625)"/>
       <path id="DejaVuSans-44" d="M 2194 1759
Q 1497 1759 1228 1600
Q 959 1441 959 1056
Q 959 750 1161 570
Q 1363 391 1709 391
Q 2188 391 2477 730
Q 2766 1069 2766 1631
L 2766 1759
L 2194 1759
z
M 3341 1997
L 3341 0
L 2766 0
L 2766 531
Q 2569 213 2275 61
Q 1981 -91 1556 -91
Q 1019 -91 701 211
Q 384 513 384 1019
Q 384 1609 779 1909
Q 1175 2209 1959 2209
L 2766 2209
L 2766 2266
Q 2766 2663 2505 2880
Q 2244 3097 1772 3097
Q 1472 3097 1187 3025
Q 903 2953 641 2809
L 641 3341
Q 956 3463 1253 3523
Q 1550 3584 1831 3584
Q 2591 3584 2966 3190
Q 3341 2797 3341 1997
z
" transform="scale(0.015625)"/>
       <path id="DejaVuSans-4c" d="M 603 3500
L 1178 3500
L 1178 0
L 603 0
L 603 3500
z
M 603 4863
L 1178 4863
L 1178 4134
L 603 4134
L 603 4863
z
" transform="scale(0.015625)"/>
       <path id="DejaVuSans-4f" d="M 603 4863
L 1178 4863
L 1178 0
L 603 0
L 603 4863
z
" transform="scale(0.015625)"/>
       <path id="DejaVuSans-57" d="M 1172 4494
L 1172 3500
L 2356 3500
L 2356 3053
L 1172 3053
L 1172 1153
Q 1172 725 1289 603
Q 1406 481 1766 481
L 2356 481
L 2356 0
L 1766 0
Q 1100 0 847 248
Q 594 497 594 1153
L 594 3053
L 172 3053
L 172 3500
L 594 3500
L 594 4494
L 1172 4494
z
" transform="scale(0.015625)"/>
       <path id="DejaVuSans-5c" d="M 2059 -325
Q 1816 -950 1584 -1140
Q 1353 -1331 966 -1331
L 506 -1331
L 506 -850
L 844 -850
Q 1081 -850 1212 -737
Q 1344 -625 1503 -206
L 1606 56
L 191 3500
L 800 3500
L 1894 763
L 2988 3500
L 3597 3500
L 2059 -325
z
" transform="scale(0.015625)"/>
       <path id="DejaVuSans-3" transform="scale(0.015625)"/>
       <path id="DejaVuSans-b" d="M 1984 4856
Q 1566 4138 1362 3434
Q 1159 2731 1159 2009
Q 1159 1288 1364 580
Q 1569 -128 1984 -844
L 1484 -844
Q 1016 -109 783 600
Q 550 1309 550 2009
Q 550 2706 781 3412
Q 1013 4119 1484 4856
L 1984 4856
z
" transform="scale(0.015625)"/>
       <path id="DejaVuSans-30" d="M 628 4666
L 1569 4666
L 2759 1491
L 3956 4666
L 4897 4666
L 4897 0
L 4281 0
L 4281 4097
L 3078 897
L 2444 897
L 1241 4097
L 1241 0
L 628 0
L 628 4666
z
" transform="scale(0.015625)"/>
       <path id="DejaVuSans-47" d="M 2906 2969
L 2906 4863
L 3481 4863
L 3481 0
L 2906 0
L 2906 525
Q 2725 213 2448 61
Q 2172 -91 1784 -91
Q 1150 -91 751 415
Q 353 922 353 1747
Q 353 2572 751 3078
Q 1150 3584 1784 3584
Q 2172 3584 2448 3432
Q 2725 3281 2906 2969
z
M 947 1747
Q 947 1113 1208 752
Q 1469 391 1925 391
Q 2381 391 2643 752
Q 2906 1113 2906 1747
Q 2906 2381 2643 2742
Q 2381 3103 1925 3103
Q 1469 3103 1208 2742
Q 947 2381 947 1747
z
" transform="scale(0.015625)"/>
       <path id="DejaVuSans-48" d="M 3597 1894
L 3597 1613
L 953 1613
Q 991 1019 1311 708
Q 1631 397 2203 397
Q 2534 397 2845 478
Q 3156 559 3463 722
L 3463 178
Q 3153 47 2828 -22
Q 2503 -91 2169 -91
Q 1331 -91 842 396
Q 353 884 353 1716
Q 353 2575 817 3079
Q 1281 3584 2069 3584
Q 2775 3584 3186 3129
Q 3597 2675 3597 1894
z
M 3022 2063
Q 3016 2534 2758 2815
Q 2500 3097 2075 3097
Q 1594 3097 1305 2825
Q 1016 2553 972 2059
L 3022 2063
z
" transform="scale(0.015625)"/>
       <path id="DejaVuSans-c" d="M 513 4856
L 1013 4856
Q 1481 4119 1714 3412
Q 1947 2706 1947 2009
Q 1947 1309 1714 600
Q 1481 -109 1013 -844
L 513 -844
Q 928 -128 1133 580
Q 1338 1288 1338 2009
Q 1338 2731 1133 3434
Q 928 4138 513 4856
z
" transform="scale(0.015625)"/>
      </defs>
      <use xlink:href="#DejaVuSans-33"/>
      <use xlink:href="#DejaVuSans-55" transform="translate(58.546875 0)"/>
      <use xlink:href="#DejaVuSans-52" transform="translate(97.453125 0)"/>
      <use xlink:href="#DejaVuSans-45" transform="translate(158.640625 0)"/>
      <use xlink:href="#DejaVuSans-44" transform="translate(222.125 0)"/>
      <use xlink:href="#DejaVuSans-45" transform="translate(283.40625 0)"/>
      <use xlink:href="#DejaVuSans-4c" transform="translate(346.890625 0)"/>
      <use xlink:href="#DejaVuSans-4f" transform="translate(374.671875 0)"/>
      <use xlink:href="#DejaVuSans-4c" transform="translate(402.453125 0)"/>
      <use xlink:href="#DejaVuSans-57" transform="translate(430.234375 0)"/>
      <use xlink:href="#DejaVuSans-5c" transform="translate(469.4375 0)"/>
      <use xlink:href="#DejaVuSans-3" transform="translate(528.625 0)"/>
      <use xlink:href="#DejaVuSans-b" transform="translate(560.40625 0)"/>
      <use xlink:href="#DejaVuSans-30" transform="translate(599.421875 0)"/>
      <use xlink:href="#DejaVuSans-52" transform="translate(685.703125 0)"/>
      <use xlink:href="#DejaVuSans-47" transform="translate(746.890625 0)"/>
      <use xlink:href="#DejaVuSans-48" transform="translate(810.375 0)"/>
      <use xlink:href="#DejaVuSans-4f" transform="translate(871.90625 0)"/>
      <use xlink:href="#DejaVuSans-c" transform="translate(899.6875 0)"/>
     </g>
    </g>
   </g>
   <g id="matplotlib.axis_2">
    <g id="ytick_1">
     <g id="line2d_7">
      <path d="M 39.904146 415.095314
L 716.99976 415.095314
" clip-path="url(#pdf0dfeb248)" style="fill: none; stroke: #d3d3d3; stroke-width: 0.6; stroke-linecap: square"/>
     </g>
     <g id="line2d_8">
      <defs>
       <path id="m4eca3e042d" d="M 0 0
L -3.5 0
" style="stroke: #000000; stroke-width: 0.8"/>
      </defs>
      <g>
       <use xlink:href="#m4eca3e042d" x="39.904146" y="415.095314" style="stroke: #000000; stroke-width: 0.8"/>
      </g>
     </g>
     <g id="text_8">
      <!-- 0.0 -->
      <g transform="translate(17.001021 418.894143) scale(0.1 -0.1)">
       <use xlink:href="#DejaVuSans-13"/>
       <use xlink:href="#DejaVuSans-11" transform="translate(63.625 0)"/>
       <use xlink:href="#DejaVuSans-13" transform="translate(95.40625 0)"/>
      </g>
     </g>
    </g>
    <g id="ytick_2">
     <g id="line2d_9">
      <path d="M 39.904146 339.480657
L 716.99976 339.480657
" clip-path="url(#pdf0dfeb248)" style="fill: none; stroke: #d3d3d3; stroke-width: 0.6; stroke-linecap: square"/>
     </g>
     <g id="line2d_10">
      <g>
       <use xlink:href="#m4eca3e042d" x="39.904146" y="339.480657" style="stroke: #000000; stroke-width: 0.8"/>
      </g>
     </g>
     <g id="text_9">
      <!-- 0.2 -->
      <g transform="translate(17.001021 343.279486) scale(0.1 -0.1)">
       <use xlink:href="#DejaVuSans-13"/>
       <use xlink:href="#DejaVuSans-11" transform="translate(63.625 0)"/>
       <use xlink:href="#DejaVuSans-15" transform="translate(95.40625 0)"/>
      </g>
     </g>
    </g>
    <g id="ytick_3">
     <g id="line2d_11">
      <path d="M 39.904146 263.866
L 716.99976 263.866
" clip-path="url(#pdf0dfeb248)" style="fill: none; stroke: #d3d3d3; stroke-width: 0.6; stroke-linecap: square"/>
     </g>
     <g id="line2d_12">
      <g>
       <use xlink:href="#m4eca3e042d" x="39.904146" y="263.866" style="stroke: #000000; stroke-width: 0.8"/>
      </g>
     </g>
     <g id="text_10">
      <!-- 0.4 -->
      <g transform="translate(17.001021 267.664829) scale(0.1 -0.1)">
       <use xlink:href="#DejaVuSans-13"/>
       <use xlink:href="#DejaVuSans-11" transform="translate(63.625 0)"/>
       <use xlink:href="#DejaVuSans-17" transform="translate(95.40625 0)"/>
      </g>
     </g>
    </g>
    <g id="ytick_4">
     <g id="line2d_13">
      <path d="M 39.904146 188.251343
L 716.99976 188.251343
" clip-path="url(#pdf0dfeb248)" style="fill: none; stroke: #d3d3d3; stroke-width: 0.6; stroke-linecap: square"/>
     </g>
     <g id="line2d_14">
      <g>
       <use xlink:href="#m4eca3e042d" x="39.904146" y="188.251343" style="stroke: #000000; stroke-width: 0.8"/>
      </g>
     </g>
     <g id="text_11">
      <!-- 0.6 -->
      <g transform="translate(17.001021 192.050171) scale(0.1 -0.1)">
       <use xlink:href="#DejaVuSans-13"/>
       <use xlink:href="#DejaVuSans-11" transform="translate(63.625 0)"/>
       <use xlink:href="#DejaVuSans-19" transform="translate(95.40625 0)"/>
      </g>
     </g>
    </g>
    <g id="ytick_5">
     <g id="line2d_15">
      <path d="M 39.904146 112.636686
L 716.99976 112.636686
" clip-path="url(#pdf0dfeb248)" style="fill: none; stroke: #d3d3d3; stroke-width: 0.6; stroke-linecap: square"/>
     </g>
     <g id="line2d_16">
      <g>
       <use xlink:href="#m4eca3e042d" x="39.904146" y="112.636686" style="stroke: #000000; stroke-width: 0.8"/>
      </g>
     </g>
     <g id="text_12">
      <!-- 0.8 -->
      <g transform="translate(17.001021 116.435514) scale(0.1 -0.1)">
       <use xlink:href="#DejaVuSans-13"/>
       <use xlink:href="#DejaVuSans-11" transform="translate(63.625 0)"/>
       <use xlink:href="#DejaVuSans-1b" transform="translate(95.40625 0)"/>
      </g>
     </g>
    </g>
    <g id="ytick_6">
     <g id="line2d_17">
      <path d="M 39.904146 37.022029
L 716.99976 37.022029
" clip-path="url(#pdf0dfeb248)" style="fill: none; stroke: #d3d3d3; stroke-width: 0.6; stroke-linecap: square"/>
     </g>
     <g id="line2d_18">
      <g>
       <use xlink:href="#m4eca3e042d" x="39.904146" y="37.022029" style="stroke: #000000; stroke-width: 0.8"/>
      </g>
     </g>
     <g id="text_13">
      <!-- 1.0 -->
      <g transform="translate(17.001021 40.820857) scale(0.1 -0.1)">
       <use xlink:href="#DejaVuSans-14"/>
       <use xlink:href="#DejaVuSans-11" transform="translate(63.625 0)"/>
       <use xlink:href="#DejaVuSans-13" transform="translate(95.40625 0)"/>
      </g>
     </g>
    </g>
    <g id="text_14">
     <!-- Probability (Data) -->
     <g transform="translate(10.598677 269.918828) rotate(-90) scale(0.1 -0.1)">
      <defs>
       <path id="DejaVuSans-27" d="M 1259 4147
L 1259 519
L 2022 519
Q 2988 519 3436 956
Q 3884 1394 3884 2338
Q 3884 3275 3436 3711
Q 2988 4147 2022 4147
L 1259 4147
z
M 628 4666
L 1925 4666
Q 3281 4666 3915 4102
Q 4550 3538 4550 2338
Q 4550 1131 3912 565
Q 3275 0 1925 0
L 628 0
L 628 4666
z
" transform="scale(0.015625)"/>
      </defs>
      <use xlink:href="#DejaVuSans-33"/>
      <use xlink:href="#DejaVuSans-55" transform="translate(58.546875 0)"/>
      <use xlink:href="#DejaVuSans-52" transform="translate(97.453125 0)"/>
      <use xlink:href="#DejaVuSans-45" transform="translate(158.640625 0)"/>
      <use xlink:href="#DejaVuSans-44" transform="translate(222.125 0)"/>
      <use xlink:href="#DejaVuSans-45" transform="translate(283.40625 0)"/>
      <use xlink:href="#DejaVuSans-4c" transform="translate(346.890625 0)"/>
      <use xlink:href="#DejaVuSans-4f" transform="translate(374.671875 0)"/>
      <use xlink:href="#DejaVuSans-4c" transform="translate(402.453125 0)"/>
      <use xlink:href="#DejaVuSans-57" transform="translate(430.234375 0)"/>
      <use xlink:href="#DejaVuSans-5c" transform="translate(469.4375 0)"/>
      <use xlink:href="#DejaVuSans-3" transform="translate(528.625 0)"/>
      <use xlink:href="#DejaVuSans-b" transform="translate(560.40625 0)"/>
      <use xlink:href="#DejaVuSans-27" transform="translate(599.421875 0)"/>
      <use xlink:href="#DejaVuSans-44" transform="translate(676.421875 0)"/>
      <use xlink:href="#DejaVuSans-57" transform="translate(737.703125 0)"/>
      <use xlink:href="#DejaVuSans-44" transform="translate(776.90625 0)"/>
      <use xlink:href="#DejaVuSans-c" transform="translate(838.1875 0)"/>
     </g>
    </g>
   </g>
   <g id="line2d_19">
    <path d="M 70.68122 415.095314
L 686.222687 37.022029
" clip-path="url(#pdf0dfeb248)" style="fill: none; stroke-dasharray: 4.44,1.92; stroke-dashoffset: 0; stroke: #000000; stroke-width: 1.2"/>
   </g>
   <g id="line2d_20">
    <path d="M 70.68122 407.824674
L 111.190916 400.554034
L 128.328766 393.283394
L 140.846124 386.012754
L 151.736692 378.742114
L 166.35702 371.471474
L 195.647326 364.200834
L 231.386297 356.930194
L 247.16159 349.659554
L 265.583568 342.388913
L 291.27987 335.118273
L 301.113355 327.847633
L 304.977848 320.576993
L 332.751967 313.306353
L 351.825159 306.035713
L 356.845928 298.765073
L 358.502709 291.494433
L 366.662445 284.223793
L 374.619016 276.953153
L 382.37748 269.682512
L 390.688861 262.411872
L 392.915879 255.141232
L 422.388297 247.870592
L 424.376441 240.599952
L 425.035821 233.329312
L 431.538983 226.058672
L 431.538983 218.788032
L 437.880225 211.517392
L 444.06358 204.246752
L 444.06358 196.976111
L 455.972255 189.705471
L 461.138339 182.434831
L 467.295296 175.164191
L 468.94504 167.893551
L 478.061502 160.622911
L 479.108563 153.352271
L 488.298259 146.081631
L 488.298259 138.810991
L 516.085854 131.540351
L 532.408059 124.26971
L 536.992244 116.99907
L 541.439805 109.72843
L 586.28032 102.45779
L 597.895628 95.18715
L 600.094839 87.91651
L 600.094839 80.64587
L 610.296303 73.37523
L 619.289449 66.10459
L 640.367423 58.83395
L 654.807724 51.563309
L 658.528687 44.292669
" clip-path="url(#pdf0dfeb248)" style="fill: none; stroke: #0000ff; stroke-width: 1.2; stroke-linecap: square"/>
   </g>
   <g id="line2d_21">
    <path d="M 88.166762 407.824674
L 98.771502 400.554034
L 104.437367 393.283394
L 109.069832 386.012754
L 113.459767 378.742114
L 119.90647 371.471474
L 134.862017 364.200834
L 157.124308 356.930194
L 168.46007 349.659554
L 182.928327 342.388913
L 205.398055 335.118273
L 214.717527 327.847633
L 218.490407 320.576993
L 247.446949 313.306353
L 269.198239 306.035713
L 275.173535 298.765073
L 277.167869 291.494433
L 287.152146 284.223793
L 297.14424 276.953153
L 307.126797 269.682512
L 318.076885 262.411872
L 321.055032 255.141232
L 362.124885 247.870592
L 364.999746 240.599952
L 365.955927 233.329312
L 375.457023 226.058672
L 375.457023 218.788032
L 384.840571 211.517392
L 394.096978 204.246752
L 394.096978 196.976111
L 412.194142 189.705471
L 420.144216 182.434831
L 429.688059 175.164191
L 432.256981 167.893551
L 446.530486 160.622911
L 448.177383 153.352271
L 462.684509 146.081631
L 462.684509 138.810991
L 506.796415 131.540351
L 532.50578 124.26971
L 539.647429 116.99907
L 546.530295 109.72843
L 611.639234 102.45779
L 626.555971 95.18715
L 629.255688 87.91651
L 629.255688 80.64587
L 641.193756 73.37523
L 650.834218 66.10459
L 669.560127 58.83395
L 678.675498 51.563309
L 680.469089 44.292669
" clip-path="url(#pdf0dfeb248)" style="fill: none; stroke: #4f789a; stroke-width: 1.2; stroke-linecap: square"/>
   </g>
   <g id="line2d_22">
    <path d="M 82.756694 407.824674
L 91.653594 400.554034
L 96.750888 393.283394
L 101.063764 386.012754
L 105.256829 378.742114
L 111.578784 371.471474
L 126.860414 364.200834
L 150.755699 356.930194
L 163.282907 349.659554
L 179.505632 342.388913
L 205.023568 335.118273
L 215.669123 327.847633
L 219.983457 320.576993
L 253.080389 313.306353
L 277.797069 306.035713
L 284.548892 298.765073
L 286.798069 291.494433
L 298.022824 284.223793
L 309.192275 276.953153
L 320.280735 269.682512
L 332.356486 262.411872
L 335.624137 255.141232
L 379.892854 247.870592
L 382.932916 240.599952
L 383.942262 233.329312
L 393.922881 226.058672
L 393.922881 218.788032
L 403.691841 211.517392
L 413.241124 204.246752
L 413.241124 196.976111
L 431.656051 189.705471
L 439.637787 182.434831
L 449.131861 175.164191
L 451.670975 167.893551
L 465.651783 160.622911
L 467.251042 153.352271
L 481.214771 146.081631
L 481.214771 138.810991
L 522.32618 131.540351
L 545.385619 124.26971
L 551.680317 116.99907
L 557.703517 109.72843
L 612.96074 102.45779
L 625.383464 95.18715
L 627.63674 87.91651
L 627.63674 80.64587
L 637.659691 73.37523
L 645.88838 66.10459
L 662.797815 58.83395
L 672.315966 51.563309
L 674.476489 44.292669
" clip-path="url(#pdf0dfeb248)" style="fill: none; stroke: #b04b48; stroke-width: 1.2; stroke-linecap: square"/>
   </g>
   <g id="line2d_23">
    <path d="M 81.806212 407.824674
L 90.225181 400.554034
L 95.01753 393.283394
L 99.066806 386.012754
L 103.003767 378.742114
L 108.947153 371.471474
L 123.39024 364.200834
L 146.286625 356.930194
L 158.462577 349.659554
L 174.408297 342.388913
L 199.875876 335.118273
L 210.628574 327.847633
L 215.006085 320.576993
L 248.921977 313.306353
L 274.564619 306.035713
L 281.604617 298.765073
L 283.95256 291.494433
L 295.688243 284.223793
L 307.390533 276.953153
L 319.024841 269.682512
L 331.70576 262.411872
L 335.137933 255.141232
L 381.55952 247.870592
L 384.736064 240.599952
L 385.790237 233.329312
L 396.199781 226.058672
L 396.199781 218.788032
L 406.360145 211.517392
L 416.260587 204.246752
L 416.260587 196.976111
L 435.250051 189.705471
L 443.433222 182.434831
L 453.125194 175.164191
L 455.709137 167.893551
L 469.871635 160.622911
L 471.484364 153.352271
L 485.498063 146.081631
L 485.498063 138.810991
L 525.985021 131.540351
L 548.143618 124.26971
L 554.120629 116.99907
L 559.81097 109.72843
L 610.803028 102.45779
L 622.046558 95.18715
L 624.083688 87.91651
L 624.083688 80.64587
L 633.155026 73.37523
L 640.642623 66.10459
L 656.395526 58.83395
L 665.842044 51.563309
L 668.119464 44.292669
" clip-path="url(#pdf0dfeb248)" style="fill: none; stroke: #588157; stroke-width: 1.2; stroke-linecap: square"/>
   </g>
   <g id="line2d_24">
    <path d="M 79.893059 407.824674
L 89.29811 400.554034
L 94.855958 393.283394
L 99.594068 386.012754
L 104.213008 378.742114
L 111.178031 371.471474
L 127.923449 364.200834
L 153.686379 356.930194
L 166.972145 349.659554
L 183.965723 342.388913
L 210.264396 335.118273
L 221.097782 327.847633
L 225.46738 320.576993
L 258.635022 313.306353
L 283.060368 306.035713
L 289.690393 298.765073
L 291.895382 291.494433
L 302.874357 284.223793
L 313.760849 276.953153
L 324.534901 269.682512
L 336.235149 262.411872
L 339.39591 255.141232
L 382.053486 247.870592
L 384.975045 240.599952
L 385.94491 233.329312
L 395.53214 226.058672
L 395.53214 218.788032
L 404.912515 211.517392
L 414.080882 204.246752
L 414.080882 196.976111
L 431.766598 189.705471
L 439.437713 182.434831
L 448.569187 175.164191
L 451.012861 167.893551
L 464.482443 160.622911
L 466.024968 153.352271
L 479.511505 146.081631
L 479.511505 138.810991
L 519.469692 131.540351
L 542.107443 124.26971
L 548.322664 116.99907
L 554.285801 109.72843
L 609.889628 102.45779
L 622.664346 95.18715
L 624.994299 87.91651
L 624.994299 80.64587
L 635.408534 73.37523
L 644.02152 66.10459
L 661.894422 58.83395
L 672.023607 51.563309
L 674.319563 44.292669
" clip-path="url(#pdf0dfeb248)" style="fill: none; stroke: #000000; stroke-width: 1.2; stroke-linecap: square"/>
   </g>
   <g id="line2d_25">
    <path d="M 70.681223 407.824674
L 100.924799 400.554034
L 114.058522 393.283394
L 123.785472 386.012754
L 132.343325 378.742114
L 143.975282 371.471474
L 167.794783 364.200834
L 197.85449 356.930194
L 211.495928 349.659554
L 227.733506 342.388913
L 250.967285 335.118273
L 260.04783 327.847633
L 263.646219 320.576993
L 290.02301 313.306353
L 308.687821 306.035713
L 313.679739 298.765073
L 315.334387 291.494433
L 323.537934 284.223793
L 331.625835 276.953153
L 339.598776 269.682512
L 348.237054 262.411872
L 350.569072 255.141232
L 382.155121 247.870592
L 384.336147 240.599952
L 385.060951 233.329312
L 392.248553 226.058672
L 392.248553 218.788032
L 399.326752 211.517392
L 406.296252 204.246752
L 406.296252 196.976111
L 419.91197 189.705471
L 425.899615 182.434831
L 433.101363 175.164191
L 435.043353 167.893551
L 445.870116 160.622911
L 447.124076 153.352271
L 458.223945 146.081631
L 458.223945 138.810991
L 492.853509 131.540351
L 513.971478 124.26971
L 520.008352 116.99907
L 525.909726 109.72843
L 587.707075 102.45779
L 604.249694 95.18715
L 607.392401 87.91651
L 607.392401 80.64587
L 621.963208 73.37523
L 634.704272 66.10459
L 663.000262 58.83395
L 678.736194 51.563309
L 681.743491 44.292669
" clip-path="url(#pdf0dfeb248)" style="fill: none; stroke: #0000ff; stroke-width: 1.2; stroke-linecap: square"/>
   </g>
   <g id="line2d_26">
    <path d="M 87.341958 407.824674
L 96.420689 400.554034
L 101.37703 393.283394
L 105.486201 386.012754
L 109.426512 378.742114
L 115.291721 371.471474
L 129.23329 364.200834
L 150.737992 356.930194
L 161.979216 349.659554
L 176.56602 342.388913
L 199.662906 335.118273
L 209.373658 327.847633
L 213.323678 320.576993
L 243.935863 313.306353
L 267.189544 306.035713
L 273.604221 298.765073
L 275.747201 291.494433
L 286.48825 284.223793
L 297.254004 276.953153
L 308.019565 269.682512
L 319.833163 262.411872
L 323.046062 255.141232
L 367.261839 247.870592
L 370.345672 240.599952
L 371.370903 233.329312
L 381.544837 226.058672
L 381.544837 218.788032
L 391.566686 211.517392
L 401.423835 204.246752
L 401.423835 196.976111
L 420.600422 189.705471
L 428.980227 182.434831
L 439.000448 175.164191
L 441.689864 167.893551
L 456.569448 160.622911
L 458.279085 153.352271
L 473.270706 146.081631
L 473.270706 138.810991
L 518.023148 131.540351
L 543.455259 124.26971
L 550.426967 116.99907
L 557.106312 109.72843
L 618.253737 102.45779
L 631.735992 95.18715
L 634.156458 87.91651
L 634.156458 80.64587
L 644.795148 73.37523
L 653.32368 66.10459
L 669.877147 58.83395
L 678.158796 51.563309
L 679.856574 44.292669
" clip-path="url(#pdf0dfeb248)" style="fill: none; stroke: #4f789a; stroke-width: 1.2; stroke-linecap: square"/>
   </g>
   <g id="line2d_27">
    <path d="M 72.675702 407.824674
L 89.407959 400.554034
L 98.801773 393.283394
L 106.321449 386.012754
L 113.274849 378.742114
L 123.169678 371.471474
L 144.774418 364.200834
L 174.079487 356.930194
L 187.974402 349.659554
L 204.9101 342.388913
L 229.769143 335.118273
L 239.653371 327.847633
L 243.593075 320.576993
L 272.809871 313.306353
L 293.773009 306.035713
L 299.41056 298.765073
L 301.281667 291.494433
L 310.574651 284.223793
L 319.759672 276.953153
L 328.832098 269.682512
L 338.67681 262.411872
L 341.33657 255.141232
L 377.387371 247.870592
L 379.875031 240.599952
L 380.701598 233.329312
L 388.893865 226.058672
L 388.893865 218.788032
L 396.951632 211.517392
L 404.873603 204.246752
L 404.873603 196.976111
L 420.306179 189.705471
L 427.070665 182.434831
L 435.185806 175.164191
L 437.369857 167.893551
L 449.509834 160.622911
L 450.91166 153.352271
L 463.278327 146.081631
L 463.278327 138.810991
L 501.284566 131.540351
L 523.937576 124.26971
L 530.327531 116.99907
L 536.534179 109.72843
L 598.726701 102.45779
L 614.339559 95.18715
L 617.247672 87.91651
L 617.247672 80.64587
L 630.472498 73.37523
L 641.668375 66.10459
L 665.218979 58.83395
L 677.739368 51.563309
L 680.233084 44.292669
" clip-path="url(#pdf0dfeb248)" style="fill: none; stroke: #b04b48; stroke-width: 1.2; stroke-linecap: square"/>
   </g>
   <g id="line2d_28">
    <path d="M 79.740316 407.824674
L 89.133412 400.554034
L 94.698508 393.283394
L 99.447152 386.012754
L 104.078935 378.742114
L 111.066527 371.471474
L 127.874254 364.200834
L 153.737555 356.930194
L 167.072813 349.659554
L 184.125471 342.388913
L 210.504262 335.118273
L 221.366312 327.847633
L 225.746732 320.576993
L 258.982539 313.306353
L 283.442363 306.035713
L 290.079484 298.765073
L 292.286622 291.494433
L 303.274743 284.223793
L 314.167779 276.953153
L 324.945874 269.682512
L 336.647828 262.411872
L 339.808577 255.141232
L 382.447171 247.870592
L 385.366196 240.599952
L 386.335187 233.329312
L 395.912883 226.058672
L 395.912883 218.788032
L 405.282399 211.517392
L 414.438734 204.246752
L 414.438734 196.976111
L 432.097445 189.705471
L 439.755361 182.434831
L 448.87001 175.164191
L 451.308983 167.893551
L 464.75121 160.622911
L 466.290452 153.352271
L 479.747049 146.081631
L 479.747049 138.810991
L 519.605406 131.540351
L 542.181364 124.26971
L 548.379269 116.99907
L 554.325732 109.72843
L 609.782433 102.45779
L 622.530311 95.18715
L 624.855942 87.91651
L 624.855942 80.64587
L 635.253715 73.37523
L 643.85761 66.10459
L 661.732821 58.83395
L 671.886152 51.563309
L 674.19173 44.292669
" clip-path="url(#pdf0dfeb248)" style="fill: none; stroke: #588157; stroke-width: 1.2; stroke-linecap: square"/>
   </g>
   <g id="line2d_29">
    <path d="M 124.024659 407.824674
L 133.223965 400.554034
L 137.747419 393.283394
L 141.326159 386.012754
L 144.645684 378.742114
L 149.42921 371.471474
L 160.285596 364.200834
L 176.278482 356.930194
L 184.48347 349.659554
L 195.098427 342.388913
L 212.020972 335.118273
L 219.226641 327.847633
L 222.178108 320.576993
L 245.544938 313.306353
L 263.995357 306.035713
L 269.206898 298.765073
L 270.960352 291.494433
L 279.845442 284.223793
L 288.917553 276.953153
L 298.162883 269.682512
L 308.514787 262.411872
L 311.368421 255.141232
L 352.371503 247.870592
L 355.354749 240.599952
L 356.350164 233.329312
L 366.32645 226.058672
L 366.32645 218.788032
L 376.328323 211.517392
L 386.334682 204.246752
L 386.334682 196.976111
L 406.276462 189.705471
L 415.184037 182.434831
L 425.985436 175.164191
L 428.911752 167.893551
L 445.30296 160.622911
L 447.207429 153.352271
L 464.083055 146.081631
L 464.083055 138.810991
L 516.007348 131.540351
L 546.122686 124.26971
L 554.388063 116.99907
L 562.29292 109.72843
L 631.842385 102.45779
L 645.705405 95.18715
L 648.098622 87.91651
L 648.098622 80.64587
L 658.200183 73.37523
L 665.720217 66.10459
L 678.329719 58.83395
L 683.223173 51.563309
L 684.052913 44.292669
" clip-path="url(#pdf0dfeb248)" style="fill: none; stroke: #000000; stroke-width: 1.2; stroke-linecap: square"/>
   </g>
   <g id="line2d_30">
    <path d="M 79.736007 407.824674
L 89.12656 400.554034
L 94.690503 393.283394
L 99.438307 386.012754
L 104.069373 378.742114
L 111.056045 371.471474
L 127.862163 364.200834
L 153.724169 356.930194
L 167.059162 349.659554
L 184.111783 342.388913
L 210.49105 335.118273
L 221.353449 327.847633
L 225.734031 320.576993
L 258.971417 313.306353
L 283.432718 306.035713
L 290.070276 298.765073
L 292.277563 291.494433
L 303.266443 284.223793
L 314.160264 276.953153
L 324.939161 269.682512
L 336.642011 262.411872
L 339.803006 255.141232
L 382.445027 247.870592
L 385.364291 240.599952
L 386.333362 233.329312
L 395.911843 226.058672
L 395.911843 218.788032
L 405.282126 211.517392
L 414.439209 204.246752
L 414.439209 196.976111
L 432.099345 189.705471
L 439.75787 182.434831
L 448.873233 175.164191
L 451.312395 167.893551
L 464.755646 160.622911
L 466.295002 153.352271
L 479.75258 146.081631
L 479.75258 138.810991
L 519.613523 131.540351
L 542.190653 124.26971
L 548.388832 116.99907
L 554.335535 109.72843
L 609.793057 102.45779
L 622.540613 95.18715
L 624.866156 87.91651
L 624.866156 80.64587
L 635.263407 73.37523
L 643.866682 66.10459
L 661.739852 58.83395
L 671.891321 51.563309
L 674.196362 44.292669
" clip-path="url(#pdf0dfeb248)" style="fill: none; stroke: #0000ff; stroke-width: 1.2; stroke-linecap: square"/>
   </g>
   <g id="line2d_31">
    <path d="M 81.241402 407.824674
L 90.951521 400.554034
L 96.557738 393.283394
L 101.291566 386.012754
L 105.87677 378.742114
L 112.749816 371.471474
L 129.143595 364.200834
L 154.186762 356.930194
L 167.068091 349.659554
L 183.539201 342.388913
L 209.053938 335.118273
L 219.581467 327.847633
L 223.831306 320.576993
L 256.169928 313.306353
L 280.088754 306.035713
L 286.598112 298.765073
L 288.764625 291.494433
L 299.564544 284.223793
L 310.294515 276.953153
L 320.934787 269.682512
L 332.514068 262.411872
L 335.646554 255.141232
L 378.110442 247.870592
L 381.031746 240.599952
L 382.0019 233.329312
L 391.602011 226.058672
L 391.602011 218.788032
L 401.012675 211.517392
L 410.227603 204.246752
L 410.227603 196.976111
L 428.05054 189.705471
L 435.800566 182.434831
L 445.041209 175.164191
L 447.516896 167.893551
L 461.184002 160.622911
L 462.751409 153.352271
L 476.475062 146.081631
L 476.475062 138.810991
L 517.334149 131.540351
L 540.602556 124.26971
L 547.004117 116.99907
L 553.150767 109.72843
L 610.588813 102.45779
L 623.767273 95.18715
L 626.166888 87.91651
L 626.166888 80.64587
L 636.869096 73.37523
L 645.67887 66.10459
L 663.733878 58.83395
L 673.690078 51.563309
L 675.892506 44.292669
" clip-path="url(#pdf0dfeb248)" style="fill: none; stroke: #4f789a; stroke-width: 1.2; stroke-linecap: square"/>
   </g>
   <g id="line2d_32">
    <path d="M 121.485258 407.824674
L 130.932388 400.554034
L 135.521697 393.283394
L 139.125987 386.012754
L 142.448313 378.742114
L 147.200877 371.471474
L 157.838012 364.200834
L 173.155393 356.930194
L 180.86489 349.659554
L 190.703521 342.388913
L 206.106796 335.118273
L 212.572276 327.847633
L 215.205991 320.576993
L 235.794381 313.306353
L 251.777844 306.035713
L 256.257861 298.765073
L 257.762206 291.494433
L 265.364032 284.223793
L 273.094141 276.953153
L 280.945074 269.682512
L 289.71124 262.411872
L 292.124294 255.141232
L 326.754388 247.870592
L 329.278479 240.599952
L 330.121044 233.329312
L 338.577198 226.058672
L 338.577198 218.788032
L 347.081762 211.517392
L 355.62454 204.246752
L 355.62454 196.976111
L 372.783298 189.705471
L 380.518824 182.434831
L 389.969799 175.164191
L 392.544965 167.893551
L 407.099963 160.622911
L 408.806661 153.352271
L 424.090533 146.081631
L 424.090533 138.810991
L 473.429589 131.540351
L 504.2409 124.26971
L 513.06828 116.99907
L 521.683605 109.72843
L 607.385512 102.45779
L 627.37731 95.18715
L 630.952734 87.91651
L 630.952734 80.64587
L 646.442942 73.37523
L 658.329084 66.10459
L 678.031574 58.83395
L 684.344264 51.563309
L 685.135657 44.292669
" clip-path="url(#pdf0dfeb248)" style="fill: none; stroke: #b04b48; stroke-width: 1.2; stroke-linecap: square"/>
   </g>
   <g id="line2d_33">
    <path d="M 74.702002 407.824674
L 86.500024 400.554034
L 93.751698 393.283394
L 99.871092 386.012754
L 105.748809 378.742114
L 114.432954 371.471474
L 134.479849 364.200834
L 163.481596 356.930194
L 177.777081 349.659554
L 195.561123 342.388913
L 222.216261 335.118273
L 232.953187 327.847633
L 237.250162 320.576993
L 269.34659 313.306353
L 292.528925 306.035713
L 298.772197 298.765073
L 300.844615 291.494433
L 311.137118 284.223793
L 321.305101 276.953153
L 331.337978 269.682512
L 342.206983 262.411872
L 345.139465 255.141232
L 384.64679 247.870592
L 387.352536 240.599952
L 388.250879 233.329312
L 397.135244 226.058672
L 397.135244 218.788032
L 405.837574 211.517392
L 414.355619 204.246752
L 414.355619 196.976111
L 430.832792 189.705471
L 438.002926 182.434831
L 446.559858 175.164191
L 448.854163 167.893551
L 461.537255 160.622911
L 462.993968 153.352271
L 475.771503 146.081631
L 475.771503 138.810991
L 514.149577 131.540351
L 536.322132 124.26971
L 542.474621 116.99907
L 548.406251 109.72843
L 605.308698 102.45779
L 618.85751 95.18715
L 621.350151 87.91651
L 621.350151 80.64587
L 632.573534 73.37523
L 641.954389 66.10459
L 661.638803 58.83395
L 672.765082 51.563309
L 675.243191 44.292669
" clip-path="url(#pdf0dfeb248)" style="fill: none; stroke: #588157; stroke-width: 1.2; stroke-linecap: square"/>
   </g>
   <g id="line2d_34">
    <path d="M 106.486467 407.824674
L 119.070891 400.554034
L 125.229041 393.283394
L 130.0676 386.012754
L 134.52284 378.742114
L 140.879643 371.471474
L 154.997165 364.200834
L 174.963942 356.930194
L 184.827918 349.659554
L 197.226917 342.388913
L 216.211952 335.118273
L 224.02829 327.847633
L 227.186964 320.576993
L 251.390796 313.306353
L 269.613543 306.035713
L 274.637199 298.765073
L 276.316106 291.494433
L 284.739852 284.223793
L 293.205295 276.953153
L 301.702969 269.682512
L 311.076466 262.411872
L 313.636055 255.141232
L 349.454439 247.870592
L 352.002296 240.599952
L 352.851006 233.329312
L 361.32016 226.058672
L 361.32016 218.788032
L 369.751015 211.517392
L 378.135654 204.246752
L 378.135654 196.976111
L 394.735854 189.705471
L 402.120038 182.434831
L 411.062561 175.164191
L 413.484595 167.893551
L 427.062029 160.622911
L 428.642048 153.352271
L 442.685234 146.081631
L 442.685234 138.810991
L 486.881462 131.540351
L 513.791091 124.26971
L 521.430121 116.99907
L 528.86254 109.72843
L 602.738958 102.45779
L 620.534825 95.18715
L 623.781517 87.91651
L 623.781517 80.64587
L 638.195272 73.37523
L 649.834533 66.10459
L 671.777559 58.83395
L 681.230459 51.563309
L 682.82672 44.292669
" clip-path="url(#pdf0dfeb248)" style="fill: none; stroke: #000000; stroke-width: 1.2; stroke-linecap: square"/>
   </g>
   <g id="patch_3">
    <path d="M 39.904146 433.998979
L 39.904146 18.118365
" style="fill: none; stroke: #000000; stroke-width: 0.8; stroke-linejoin: miter; stroke-linecap: square"/>
   </g>
   <g id="patch_4">
    <path d="M 716.99976 433.998979
L 716.99976 18.118365
" style="fill: none; stroke: #000000; stroke-width: 0.8; stroke-linejoin: miter; stroke-linecap: square"/>
   </g>
   <g id="patch_5">
    <path d="M 39.904146 433.998979
L 716.99976 433.998979
" style="fill: none; stroke: #000000; stroke-width: 0.8; stroke-linejoin: miter; stroke-linecap: square"/>
   </g>
   <g id="patch_6">
    <path d="M 39.904146 18.118365
L 716.99976 18.118365
" style="fill: none; stroke: #000000; stroke-width: 0.8; stroke-linejoin: miter; stroke-linecap: square"/>
   </g>
   <g id="text_15">
    <!-- P-P Plot -->
    <g transform="translate(355.968828 12.118365) scale(0.12 -0.12)">
     <defs>
      <path id="DejaVuSans-10" d="M 313 2009
L 1997 2009
L 1997 1497
L 313 1497
L 313 2009
z
" transform="scale(0.015625)"/>
     </defs>
     <use xlink:href="#DejaVuSans-33"/>
     <use xlink:href="#DejaVuSans-10" transform="translate(58.09375 0)"/>
     <use xlink:href="#DejaVuSans-33" transform="translate(94.171875 0)"/>
     <use xlink:href="#DejaVuSans-3" transform="translate(154.46875 0)"/>
     <use xlink:href="#DejaVuSans-33" transform="translate(186.25 0)"/>
     <use xlink:href="#DejaVuSans-4f" transform="translate(246.546875 0)"/>
     <use xlink:href="#DejaVuSans-52" transform="translate(274.328125 0)"/>
     <use xlink:href="#DejaVuSans-57" transform="translate(335.515625 0)"/>
    </g>
   </g>
   <g id="legend_1">
    <g id="patch_7">
     <path d="M 46.904146 266.130865
L 214.754146 266.130865
Q 216.754146 266.130865 216.754146 264.130865
L 216.754146 25.118365
Q 216.754146 23.118365 214.754146 23.118365
L 46.904146 23.118365
Q 44.904146 23.118365 44.904146 25.118365
L 44.904146 264.130865
Q 44.904146 266.130865 46.904146 266.130865
z
" style="fill: #ffffff; opacity: 0.8; stroke: #999999; stroke-linejoin: miter"/>
    </g>
    <g id="line2d_35">
     <path d="M 48.904146 31.216803
L 58.904146 31.216803
L 68.904146 31.216803
" style="fill: none; stroke-dasharray: 4.44,1.92; stroke-dashoffset: 0; stroke: #000000; stroke-width: 1.2"/>
    </g>
    <g id="text_16">
     <!-- 1:1 Line -->
     <g transform="translate(76.904146 34.716803) scale(0.1 -0.1)">
      <defs>
       <path id="DejaVuSans-1d" d="M 750 794
L 1409 794
L 1409 0
L 750 0
L 750 794
z
M 750 3309
L 1409 3309
L 1409 2516
L 750 2516
L 750 3309
z
" transform="scale(0.015625)"/>
       <path id="DejaVuSans-2f" d="M 628 4666
L 1259 4666
L 1259 531
L 3531 531
L 3531 0
L 628 0
L 628 4666
z
" transform="scale(0.015625)"/>
       <path id="DejaVuSans-51" d="M 3513 2113
L 3513 0
L 2938 0
L 2938 2094
Q 2938 2591 2744 2837
Q 2550 3084 2163 3084
Q 1697 3084 1428 2787
Q 1159 2491 1159 1978
L 1159 0
L 581 0
L 581 3500
L 1159 3500
L 1159 2956
Q 1366 3272 1645 3428
Q 1925 3584 2291 3584
Q 2894 3584 3203 3211
Q 3513 2838 3513 2113
z
" transform="scale(0.015625)"/>
      </defs>
      <use xlink:href="#DejaVuSans-14"/>
      <use xlink:href="#DejaVuSans-1d" transform="translate(63.625 0)"/>
      <use xlink:href="#DejaVuSans-14" transform="translate(97.3125 0)"/>
      <use xlink:href="#DejaVuSans-3" transform="translate(160.9375 0)"/>
      <use xlink:href="#DejaVuSans-2f" transform="translate(192.71875 0)"/>
      <use xlink:href="#DejaVuSans-4c" transform="translate(248.4375 0)"/>
      <use xlink:href="#DejaVuSans-51" transform="translate(276.21875 0)"/>
      <use xlink:href="#DejaVuSans-48" transform="translate(339.59375 0)"/>
     </g>
    </g>
    <g id="line2d_36">
     <path d="M 48.904146 46.217584
L 58.904146 46.217584
L 68.904146 46.217584
" style="fill: none; stroke: #0000ff; stroke-width: 1.2; stroke-linecap: square"/>
    </g>
    <g id="text_17">
     <!-- Exponential -->
     <g transform="translate(76.904146 49.717584) scale(0.1 -0.1)">
      <defs>
       <path id="DejaVuSans-28" d="M 628 4666
L 3578 4666
L 3578 4134
L 1259 4134
L 1259 2753
L 3481 2753
L 3481 2222
L 1259 2222
L 1259 531
L 3634 531
L 3634 0
L 628 0
L 628 4666
z
" transform="scale(0.015625)"/>
       <path id="DejaVuSans-5b" d="M 3513 3500
L 2247 1797
L 3578 0
L 2900 0
L 1881 1375
L 863 0
L 184 0
L 1544 1831
L 300 3500
L 978 3500
L 1906 2253
L 2834 3500
L 3513 3500
z
" transform="scale(0.015625)"/>
       <path id="DejaVuSans-53" d="M 1159 525
L 1159 -1331
L 581 -1331
L 581 3500
L 1159 3500
L 1159 2969
Q 1341 3281 1617 3432
Q 1894 3584 2278 3584
Q 2916 3584 3314 3078
Q 3713 2572 3713 1747
Q 3713 922 3314 415
Q 2916 -91 2278 -91
Q 1894 -91 1617 61
Q 1341 213 1159 525
z
M 3116 1747
Q 3116 2381 2855 2742
Q 2594 3103 2138 3103
Q 1681 3103 1420 2742
Q 1159 2381 1159 1747
Q 1159 1113 1420 752
Q 1681 391 2138 391
Q 2594 391 2855 752
Q 3116 1113 3116 1747
z
" transform="scale(0.015625)"/>
      </defs>
      <use xlink:href="#DejaVuSans-28"/>
      <use xlink:href="#DejaVuSans-5b" transform="translate(63.1875 0)"/>
      <use xlink:href="#DejaVuSans-53" transform="translate(122.375 0)"/>
      <use xlink:href="#DejaVuSans-52" transform="translate(185.859375 0)"/>
      <use xlink:href="#DejaVuSans-51" transform="translate(247.046875 0)"/>
      <use xlink:href="#DejaVuSans-48" transform="translate(310.421875 0)"/>
      <use xlink:href="#DejaVuSans-51" transform="translate(371.953125 0)"/>
      <use xlink:href="#DejaVuSans-57" transform="translate(435.328125 0)"/>
      <use xlink:href="#DejaVuSans-4c" transform="translate(474.53125 0)"/>
      <use xlink:href="#DejaVuSans-44" transform="translate(502.3125 0)"/>
      <use xlink:href="#DejaVuSans-4f" transform="translate(563.59375 0)"/>
     </g>
    </g>
    <g id="line2d_37">
     <path d="M 48.904146 61.218365
L 58.904146 61.218365
L 68.904146 61.218365
" style="fill: none; stroke: #4f789a; stroke-width: 1.2; stroke-linecap: square"/>
    </g>
    <g id="text_18">
     <!-- Gamma -->
     <g transform="translate(76.904146 64.718365) scale(0.1 -0.1)">
      <defs>
       <path id="DejaVuSans-2a" d="M 3809 666
L 3809 1919
L 2778 1919
L 2778 2438
L 4434 2438
L 4434 434
Q 4069 175 3628 42
Q 3188 -91 2688 -91
Q 1594 -91 976 548
Q 359 1188 359 2328
Q 359 3472 976 4111
Q 1594 4750 2688 4750
Q 3144 4750 3555 4637
Q 3966 4525 4313 4306
L 4313 3634
Q 3963 3931 3569 4081
Q 3175 4231 2741 4231
Q 1884 4231 1454 3753
Q 1025 3275 1025 2328
Q 1025 1384 1454 906
Q 1884 428 2741 428
Q 3075 428 3337 486
Q 3600 544 3809 666
z
" transform="scale(0.015625)"/>
       <path id="DejaVuSans-50" d="M 3328 2828
Q 3544 3216 3844 3400
Q 4144 3584 4550 3584
Q 5097 3584 5394 3201
Q 5691 2819 5691 2113
L 5691 0
L 5113 0
L 5113 2094
Q 5113 2597 4934 2840
Q 4756 3084 4391 3084
Q 3944 3084 3684 2787
Q 3425 2491 3425 1978
L 3425 0
L 2847 0
L 2847 2094
Q 2847 2600 2669 2842
Q 2491 3084 2119 3084
Q 1678 3084 1418 2786
Q 1159 2488 1159 1978
L 1159 0
L 581 0
L 581 3500
L 1159 3500
L 1159 2956
Q 1356 3278 1631 3431
Q 1906 3584 2284 3584
Q 2666 3584 2933 3390
Q 3200 3197 3328 2828
z
" transform="scale(0.015625)"/>
      </defs>
      <use xlink:href="#DejaVuSans-2a"/>
      <use xlink:href="#DejaVuSans-44" transform="translate(77.484375 0)"/>
      <use xlink:href="#DejaVuSans-50" transform="translate(138.765625 0)"/>
      <use xlink:href="#DejaVuSans-50" transform="translate(236.171875 0)"/>
      <use xlink:href="#DejaVuSans-44" transform="translate(333.578125 0)"/>
     </g>
    </g>
    <g id="line2d_38">
     <path d="M 48.904146 76.219146
L 58.904146 76.219146
L 68.904146 76.219146
" style="fill: none; stroke: #b04b48; stroke-width: 1.2; stroke-linecap: square"/>
    </g>
    <g id="text_19">
     <!-- Generalized Extreme Value -->
     <g transform="translate(76.904146 79.719146) scale(0.1 -0.1)">
      <defs>
       <path id="DejaVuSans-5d" d="M 353 3500
L 3084 3500
L 3084 2975
L 922 459
L 3084 459
L 3084 0
L 275 0
L 275 525
L 2438 3041
L 353 3041
L 353 3500
z
" transform="scale(0.015625)"/>
       <path id="DejaVuSans-39" d="M 1831 0
L 50 4666
L 709 4666
L 2188 738
L 3669 4666
L 4325 4666
L 2547 0
L 1831 0
z
" transform="scale(0.015625)"/>
       <path id="DejaVuSans-58" d="M 544 1381
L 544 3500
L 1119 3500
L 1119 1403
Q 1119 906 1312 657
Q 1506 409 1894 409
Q 2359 409 2629 706
Q 2900 1003 2900 1516
L 2900 3500
L 3475 3500
L 3475 0
L 2900 0
L 2900 538
Q 2691 219 2414 64
Q 2138 -91 1772 -91
Q 1169 -91 856 284
Q 544 659 544 1381
z
M 1991 3584
L 1991 3584
z
" transform="scale(0.015625)"/>
      </defs>
      <use xlink:href="#DejaVuSans-2a"/>
      <use xlink:href="#DejaVuSans-48" transform="translate(77.484375 0)"/>
      <use xlink:href="#DejaVuSans-51" transform="translate(139.015625 0)"/>
      <use xlink:href="#DejaVuSans-48" transform="translate(202.390625 0)"/>
      <use xlink:href="#DejaVuSans-55" transform="translate(263.921875 0)"/>
      <use xlink:href="#DejaVuSans-44" transform="translate(305.03125 0)"/>
      <use xlink:href="#DejaVuSans-4f" transform="translate(366.3125 0)"/>
      <use xlink:href="#DejaVuSans-4c" transform="translate(394.09375 0)"/>
      <use xlink:href="#DejaVuSans-5d" transform="translate(421.875 0)"/>
      <use xlink:href="#DejaVuSans-48" transform="translate(474.359375 0)"/>
      <use xlink:href="#DejaVuSans-47" transform="translate(535.890625 0)"/>
      <use xlink:href="#DejaVuSans-3" transform="translate(599.375 0)"/>
      <use xlink:href="#DejaVuSans-28" transform="translate(631.15625 0)"/>
      <use xlink:href="#DejaVuSans-5b" transform="translate(694.34375 0)"/>
      <use xlink:href="#DejaVuSans-57" transform="translate(753.53125 0)"/>
      <use xlink:href="#DejaVuSans-55" transform="translate(792.734375 0)"/>
      <use xlink:href="#DejaVuSans-48" transform="translate(831.640625 0)"/>
      <use xlink:href="#DejaVuSans-50" transform="translate(893.171875 0)"/>
      <use xlink:href="#DejaVuSans-48" transform="translate(990.578125 0)"/>
      <use xlink:href="#DejaVuSans-3" transform="translate(1052.109375 0)"/>
      <use xlink:href="#DejaVuSans-39" transform="translate(1083.890625 0)"/>
      <use xlink:href="#DejaVuSans-44" transform="translate(1144.53125 0)"/>
      <use xlink:href="#DejaVuSans-4f" transform="translate(1205.8125 0)"/>
      <use xlink:href="#DejaVuSans-58" transform="translate(1233.59375 0)"/>
      <use xlink:href="#DejaVuSans-48" transform="translate(1296.96875 0)"/>
     </g>
    </g>
    <g id="line2d_39">
     <path d="M 48.904146 91.219928
L 58.904146 91.219928
L 68.904146 91.219928
" style="fill: none; stroke: #588157; stroke-width: 1.2; stroke-linecap: square"/>
    </g>
    <g id="text_20">
     <!-- Generalized Logistic -->
     <g transform="translate(76.904146 94.719928) scale(0.1 -0.1)">
      <defs>
       <path id="DejaVuSans-4a" d="M 2906 1791
Q 2906 2416 2648 2759
Q 2391 3103 1925 3103
Q 1463 3103 1205 2759
Q 947 2416 947 1791
Q 947 1169 1205 825
Q 1463 481 1925 481
Q 2391 481 2648 825
Q 2906 1169 2906 1791
z
M 3481 434
Q 3481 -459 3084 -895
Q 2688 -1331 1869 -1331
Q 1566 -1331 1297 -1286
Q 1028 -1241 775 -1147
L 775 -588
Q 1028 -725 1275 -790
Q 1522 -856 1778 -856
Q 2344 -856 2625 -561
Q 2906 -266 2906 331
L 2906 616
Q 2728 306 2450 153
Q 2172 0 1784 0
Q 1141 0 747 490
Q 353 981 353 1791
Q 353 2603 747 3093
Q 1141 3584 1784 3584
Q 2172 3584 2450 3431
Q 2728 3278 2906 2969
L 2906 3500
L 3481 3500
L 3481 434
z
" transform="scale(0.015625)"/>
       <path id="DejaVuSans-56" d="M 2834 3397
L 2834 2853
Q 2591 2978 2328 3040
Q 2066 3103 1784 3103
Q 1356 3103 1142 2972
Q 928 2841 928 2578
Q 928 2378 1081 2264
Q 1234 2150 1697 2047
L 1894 2003
Q 2506 1872 2764 1633
Q 3022 1394 3022 966
Q 3022 478 2636 193
Q 2250 -91 1575 -91
Q 1294 -91 989 -36
Q 684 19 347 128
L 347 722
Q 666 556 975 473
Q 1284 391 1588 391
Q 1994 391 2212 530
Q 2431 669 2431 922
Q 2431 1156 2273 1281
Q 2116 1406 1581 1522
L 1381 1569
Q 847 1681 609 1914
Q 372 2147 372 2553
Q 372 3047 722 3315
Q 1072 3584 1716 3584
Q 2034 3584 2315 3537
Q 2597 3491 2834 3397
z
" transform="scale(0.015625)"/>
       <path id="DejaVuSans-46" d="M 3122 3366
L 3122 2828
Q 2878 2963 2633 3030
Q 2388 3097 2138 3097
Q 1578 3097 1268 2742
Q 959 2388 959 1747
Q 959 1106 1268 751
Q 1578 397 2138 397
Q 2388 397 2633 464
Q 2878 531 3122 666
L 3122 134
Q 2881 22 2623 -34
Q 2366 -91 2075 -91
Q 1284 -91 818 406
Q 353 903 353 1747
Q 353 2603 823 3093
Q 1294 3584 2113 3584
Q 2378 3584 2631 3529
Q 2884 3475 3122 3366
z
" transform="scale(0.015625)"/>
      </defs>
      <use xlink:href="#DejaVuSans-2a"/>
      <use xlink:href="#DejaVuSans-48" transform="translate(77.484375 0)"/>
      <use xlink:href="#DejaVuSans-51" transform="translate(139.015625 0)"/>
      <use xlink:href="#DejaVuSans-48" transform="translate(202.390625 0)"/>
      <use xlink:href="#DejaVuSans-55" transform="translate(263.921875 0)"/>
      <use xlink:href="#DejaVuSans-44" transform="translate(305.03125 0)"/>
      <use xlink:href="#DejaVuSans-4f" transform="translate(366.3125 0)"/>
      <use xlink:href="#DejaVuSans-4c" transform="translate(394.09375 0)"/>
      <use xlink:href="#DejaVuSans-5d" transform="translate(421.875 0)"/>
      <use xlink:href="#DejaVuSans-48" transform="translate(474.359375 0)"/>
      <use xlink:href="#DejaVuSans-47" transform="translate(535.890625 0)"/>
      <use xlink:href="#DejaVuSans-3" transform="translate(599.375 0)"/>
      <use xlink:href="#DejaVuSans-2f" transform="translate(631.15625 0)"/>
      <use xlink:href="#DejaVuSans-52" transform="translate(685.125 0)"/>
      <use xlink:href="#DejaVuSans-4a" transform="translate(746.3125 0)"/>
      <use xlink:href="#DejaVuSans-4c" transform="translate(809.796875 0)"/>
      <use xlink:href="#DejaVuSans-56" transform="translate(837.578125 0)"/>
      <use xlink:href="#DejaVuSans-57" transform="translate(889.671875 0)"/>
      <use xlink:href="#DejaVuSans-4c" transform="translate(928.875 0)"/>
      <use xlink:href="#DejaVuSans-46" transform="translate(956.65625 0)"/>
     </g>
    </g>
    <g id="line2d_40">
     <path d="M 48.904146 106.220709
L 58.904146 106.220709
L 68.904146 106.220709
" style="fill: none; stroke: #000000; stroke-width: 1.2; stroke-linecap: square"/>
    </g>
    <g id="text_21">
     <!-- Generalized Normal -->
     <g transform="translate(76.904146 109.720709) scale(0.1 -0.1)">
      <defs>
       <path id="DejaVuSans-31" d="M 628 4666
L 1478 4666
L 3547 763
L 3547 4666
L 4159 4666
L 4159 0
L 3309 0
L 1241 3903
L 1241 0
L 628 0
L 628 4666
z
" transform="scale(0.015625)"/>
      </defs>
      <use xlink:href="#DejaVuSans-2a"/>
      <use xlink:href="#DejaVuSans-48" transform="translate(77.484375 0)"/>
      <use xlink:href="#DejaVuSans-51" transform="translate(139.015625 0)"/>
      <use xlink:href="#DejaVuSans-48" transform="translate(202.390625 0)"/>
      <use xlink:href="#DejaVuSans-55" transform="translate(263.921875 0)"/>
      <use xlink:href="#DejaVuSans-44" transform="translate(305.03125 0)"/>
      <use xlink:href="#DejaVuSans-4f" transform="translate(366.3125 0)"/>
      <use xlink:href="#DejaVuSans-4c" transform="translate(394.09375 0)"/>
      <use xlink:href="#DejaVuSans-5d" transform="translate(421.875 0)"/>
      <use xlink:href="#DejaVuSans-48" transform="translate(474.359375 0)"/>
      <use xlink:href="#DejaVuSans-47" transform="translate(535.890625 0)"/>
      <use xlink:href="#DejaVuSans-3" transform="translate(599.375 0)"/>
      <use xlink:href="#DejaVuSans-31" transform="translate(631.15625 0)"/>
      <use xlink:href="#DejaVuSans-52" transform="translate(705.96875 0)"/>
      <use xlink:href="#DejaVuSans-55" transform="translate(767.15625 0)"/>
      <use xlink:href="#DejaVuSans-50" transform="translate(806.515625 0)"/>
      <use xlink:href="#DejaVuSans-44" transform="translate(903.921875 0)"/>
      <use xlink:href="#DejaVuSans-4f" transform="translate(965.203125 0)"/>
     </g>
    </g>
    <g id="line2d_41">
     <path d="M 48.904146 121.22149
L 58.904146 121.22149
L 68.904146 121.22149
" style="fill: none; stroke: #0000ff; stroke-width: 1.2; stroke-linecap: square"/>
    </g>
    <g id="text_22">
     <!-- Generalized Pareto -->
     <g transform="translate(76.904146 124.72149) scale(0.1 -0.1)">
      <use xlink:href="#DejaVuSans-2a"/>
      <use xlink:href="#DejaVuSans-48" transform="translate(77.484375 0)"/>
      <use xlink:href="#DejaVuSans-51" transform="translate(139.015625 0)"/>
      <use xlink:href="#DejaVuSans-48" transform="translate(202.390625 0)"/>
      <use xlink:href="#DejaVuSans-55" transform="translate(263.921875 0)"/>
      <use xlink:href="#DejaVuSans-44" transform="translate(305.03125 0)"/>
      <use xlink:href="#DejaVuSans-4f" transform="translate(366.3125 0)"/>
      <use xlink:href="#DejaVuSans-4c" transform="translate(394.09375 0)"/>
      <use xlink:href="#DejaVuSans-5d" transform="translate(421.875 0)"/>
      <use xlink:href="#DejaVuSans-48" transform="translate(474.359375 0)"/>
      <use xlink:href="#DejaVuSans-47" transform="translate(535.890625 0)"/>
      <use xlink:href="#DejaVuSans-3" transform="translate(599.375 0)"/>
      <use xlink:href="#DejaVuSans-33" transform="translate(631.15625 0)"/>
      <use xlink:href="#DejaVuSans-44" transform="translate(686.96875 0)"/>
      <use xlink:href="#DejaVuSans-55" transform="translate(748.25 0)"/>
      <use xlink:href="#DejaVuSans-48" transform="translate(787.15625 0)"/>
      <use xlink:href="#DejaVuSans-57" transform="translate(848.6875 0)"/>
      <use xlink:href="#DejaVuSans-52" transform="translate(887.890625 0)"/>
     </g>
    </g>
    <g id="line2d_42">
     <path d="M 48.904146 136.222271
L 58.904146 136.222271
L 68.904146 136.222271
" style="fill: none; stroke: #4f789a; stroke-width: 1.2; stroke-linecap: square"/>
    </g>
    <g id="text_23">
     <!-- Gumbel (EVI) -->
     <g transform="translate(76.904146 139.722271) scale(0.1 -0.1)">
      <defs>
       <path id="DejaVuSans-2c" d="M 628 4666
L 1259 4666
L 1259 0
L 628 0
L 628 4666
z
" transform="scale(0.015625)"/>
      </defs>
      <use xlink:href="#DejaVuSans-2a"/>
      <use xlink:href="#DejaVuSans-58" transform="translate(77.484375 0)"/>
      <use xlink:href="#DejaVuSans-50" transform="translate(140.859375 0)"/>
      <use xlink:href="#DejaVuSans-45" transform="translate(238.265625 0)"/>
      <use xlink:href="#DejaVuSans-48" transform="translate(301.75 0)"/>
      <use xlink:href="#DejaVuSans-4f" transform="translate(363.28125 0)"/>
      <use xlink:href="#DejaVuSans-3" transform="translate(391.0625 0)"/>
      <use xlink:href="#DejaVuSans-b" transform="translate(422.84375 0)"/>
      <use xlink:href="#DejaVuSans-28" transform="translate(461.859375 0)"/>
      <use xlink:href="#DejaVuSans-39" transform="translate(525.046875 0)"/>
      <use xlink:href="#DejaVuSans-2c" transform="translate(593.453125 0)"/>
      <use xlink:href="#DejaVuSans-c" transform="translate(622.953125 0)"/>
     </g>
    </g>
    <g id="line2d_43">
     <path d="M 48.904146 151.223053
L 58.904146 151.223053
L 68.904146 151.223053
" style="fill: none; stroke: #b04b48; stroke-width: 1.2; stroke-linecap: square"/>
    </g>
    <g id="text_24">
     <!-- Kappa-4 -->
     <g transform="translate(76.904146 154.723053) scale(0.1 -0.1)">
      <defs>
       <path id="DejaVuSans-2e" d="M 628 4666
L 1259 4666
L 1259 2694
L 3353 4666
L 4166 4666
L 1850 2491
L 4331 0
L 3500 0
L 1259 2247
L 1259 0
L 628 0
L 628 4666
z
" transform="scale(0.015625)"/>
      </defs>
      <use xlink:href="#DejaVuSans-2e"/>
      <use xlink:href="#DejaVuSans-44" transform="translate(63.828125 0)"/>
      <use xlink:href="#DejaVuSans-53" transform="translate(125.109375 0)"/>
      <use xlink:href="#DejaVuSans-53" transform="translate(188.59375 0)"/>
      <use xlink:href="#DejaVuSans-44" transform="translate(252.078125 0)"/>
      <use xlink:href="#DejaVuSans-10" transform="translate(313.359375 0)"/>
      <use xlink:href="#DejaVuSans-17" transform="translate(349.4375 0)"/>
     </g>
    </g>
    <g id="line2d_44">
     <path d="M 48.904146 166.223834
L 58.904146 166.223834
L 68.904146 166.223834
" style="fill: none; stroke: #588157; stroke-width: 1.2; stroke-linecap: square"/>
    </g>
    <g id="text_25">
     <!-- Log-Normal (base e) -->
     <g transform="translate(76.904146 169.723834) scale(0.1 -0.1)">
      <use xlink:href="#DejaVuSans-2f"/>
      <use xlink:href="#DejaVuSans-52" transform="translate(53.96875 0)"/>
      <use xlink:href="#DejaVuSans-4a" transform="translate(115.15625 0)"/>
      <use xlink:href="#DejaVuSans-10" transform="translate(178.640625 0)"/>
      <use xlink:href="#DejaVuSans-31" transform="translate(214.71875 0)"/>
      <use xlink:href="#DejaVuSans-52" transform="translate(289.53125 0)"/>
      <use xlink:href="#DejaVuSans-55" transform="translate(350.71875 0)"/>
      <use xlink:href="#DejaVuSans-50" transform="translate(390.078125 0)"/>
      <use xlink:href="#DejaVuSans-44" transform="translate(487.484375 0)"/>
      <use xlink:href="#DejaVuSans-4f" transform="translate(548.765625 0)"/>
      <use xlink:href="#DejaVuSans-3" transform="translate(576.546875 0)"/>
      <use xlink:href="#DejaVuSans-b" transform="translate(608.328125 0)"/>
      <use xlink:href="#DejaVuSans-45" transform="translate(647.34375 0)"/>
      <use xlink:href="#DejaVuSans-44" transform="translate(710.828125 0)"/>
      <use xlink:href="#DejaVuSans-56" transform="translate(772.109375 0)"/>
      <use xlink:href="#DejaVuSans-48" transform="translate(824.203125 0)"/>
      <use xlink:href="#DejaVuSans-3" transform="translate(885.734375 0)"/>
      <use xlink:href="#DejaVuSans-48" transform="translate(917.515625 0)"/>
      <use xlink:href="#DejaVuSans-c" transform="translate(979.046875 0)"/>
     </g>
    </g>
    <g id="line2d_45">
     <path d="M 48.904146 181.224615
L 58.904146 181.224615
L 68.904146 181.224615
" style="fill: none; stroke: #000000; stroke-width: 1.2; stroke-linecap: square"/>
    </g>
    <g id="text_26">
     <!-- Logistic -->
     <g transform="translate(76.904146 184.724615) scale(0.1 -0.1)">
      <use xlink:href="#DejaVuSans-2f"/>
      <use xlink:href="#DejaVuSans-52" transform="translate(53.96875 0)"/>
      <use xlink:href="#DejaVuSans-4a" transform="translate(115.15625 0)"/>
      <use xlink:href="#DejaVuSans-4c" transform="translate(178.640625 0)"/>
      <use xlink:href="#DejaVuSans-56" transform="translate(206.421875 0)"/>
      <use xlink:href="#DejaVuSans-57" transform="translate(258.515625 0)"/>
      <use xlink:href="#DejaVuSans-4c" transform="translate(297.71875 0)"/>
      <use xlink:href="#DejaVuSans-46" transform="translate(325.5 0)"/>
     </g>
    </g>
    <g id="line2d_46">
     <path d="M 48.904146 196.225396
L 58.904146 196.225396
L 68.904146 196.225396
" style="fill: none; stroke: #0000ff; stroke-width: 1.2; stroke-linecap: square"/>
    </g>
    <g id="text_27">
     <!-- Log-Normal (base 10) -->
     <g transform="translate(76.904146 199.725396) scale(0.1 -0.1)">
      <use xlink:href="#DejaVuSans-2f"/>
      <use xlink:href="#DejaVuSans-52" transform="translate(53.96875 0)"/>
      <use xlink:href="#DejaVuSans-4a" transform="translate(115.15625 0)"/>
      <use xlink:href="#DejaVuSans-10" transform="translate(178.640625 0)"/>
      <use xlink:href="#DejaVuSans-31" transform="translate(214.71875 0)"/>
      <use xlink:href="#DejaVuSans-52" transform="translate(289.53125 0)"/>
      <use xlink:href="#DejaVuSans-55" transform="translate(350.71875 0)"/>
      <use xlink:href="#DejaVuSans-50" transform="translate(390.078125 0)"/>
      <use xlink:href="#DejaVuSans-44" transform="translate(487.484375 0)"/>
      <use xlink:href="#DejaVuSans-4f" transform="translate(548.765625 0)"/>
      <use xlink:href="#DejaVuSans-3" transform="translate(576.546875 0)"/>
      <use xlink:href="#DejaVuSans-b" transform="translate(608.328125 0)"/>
      <use xlink:href="#DejaVuSans-45" transform="translate(647.34375 0)"/>
      <use xlink:href="#DejaVuSans-44" transform="translate(710.828125 0)"/>
      <use xlink:href="#DejaVuSans-56" transform="translate(772.109375 0)"/>
      <use xlink:href="#DejaVuSans-48" transform="translate(824.203125 0)"/>
      <use xlink:href="#DejaVuSans-3" transform="translate(885.734375 0)"/>
      <use xlink:href="#DejaVuSans-14" transform="translate(917.515625 0)"/>
      <use xlink:href="#DejaVuSans-13" transform="translate(981.140625 0)"/>
      <use xlink:href="#DejaVuSans-c" transform="translate(1044.765625 0)"/>
     </g>
    </g>
    <g id="line2d_47">
     <path d="M 48.904146 211.226178
L 58.904146 211.226178
L 68.904146 211.226178
" style="fill: none; stroke: #4f789a; stroke-width: 1.2; stroke-linecap: square"/>
    </g>
    <g id="text_28">
     <!-- Log-Pearson Type III -->
     <g transform="translate(76.904146 214.726178) scale(0.1 -0.1)">
      <defs>
       <path id="DejaVuSans-37" d="M -19 4666
L 3928 4666
L 3928 4134
L 2272 4134
L 2272 0
L 1638 0
L 1638 4134
L -19 4134
L -19 4666
z
" transform="scale(0.015625)"/>
      </defs>
      <use xlink:href="#DejaVuSans-2f"/>
      <use xlink:href="#DejaVuSans-52" transform="translate(53.96875 0)"/>
      <use xlink:href="#DejaVuSans-4a" transform="translate(115.15625 0)"/>
      <use xlink:href="#DejaVuSans-10" transform="translate(178.640625 0)"/>
      <use xlink:href="#DejaVuSans-33" transform="translate(214.71875 0)"/>
      <use xlink:href="#DejaVuSans-48" transform="translate(271.453125 0)"/>
      <use xlink:href="#DejaVuSans-44" transform="translate(332.984375 0)"/>
      <use xlink:href="#DejaVuSans-55" transform="translate(394.265625 0)"/>
      <use xlink:href="#DejaVuSans-56" transform="translate(435.375 0)"/>
      <use xlink:href="#DejaVuSans-52" transform="translate(487.46875 0)"/>
      <use xlink:href="#DejaVuSans-51" transform="translate(548.65625 0)"/>
      <use xlink:href="#DejaVuSans-3" transform="translate(612.03125 0)"/>
      <use xlink:href="#DejaVuSans-37" transform="translate(643.8125 0)"/>
      <use xlink:href="#DejaVuSans-5c" transform="translate(689.3125 0)"/>
      <use xlink:href="#DejaVuSans-53" transform="translate(748.5 0)"/>
      <use xlink:href="#DejaVuSans-48" transform="translate(811.984375 0)"/>
      <use xlink:href="#DejaVuSans-3" transform="translate(873.515625 0)"/>
      <use xlink:href="#DejaVuSans-2c" transform="translate(905.296875 0)"/>
      <use xlink:href="#DejaVuSans-2c" transform="translate(934.796875 0)"/>
      <use xlink:href="#DejaVuSans-2c" transform="translate(964.296875 0)"/>
     </g>
    </g>
    <g id="line2d_48">
     <path d="M 48.904146 226.226959
L 58.904146 226.226959
L 68.904146 226.226959
" style="fill: none; stroke: #b04b48; stroke-width: 1.2; stroke-linecap: square"/>
    </g>
    <g id="text_29">
     <!-- Normal -->
     <g transform="translate(76.904146 229.726959) scale(0.1 -0.1)">
      <use xlink:href="#DejaVuSans-31"/>
      <use xlink:href="#DejaVuSans-52" transform="translate(74.8125 0)"/>
      <use xlink:href="#DejaVuSans-55" transform="translate(136 0)"/>
      <use xlink:href="#DejaVuSans-50" transform="translate(175.359375 0)"/>
      <use xlink:href="#DejaVuSans-44" transform="translate(272.765625 0)"/>
      <use xlink:href="#DejaVuSans-4f" transform="translate(334.046875 0)"/>
     </g>
    </g>
    <g id="line2d_49">
     <path d="M 48.904146 241.22774
L 58.904146 241.22774
L 68.904146 241.22774
" style="fill: none; stroke: #588157; stroke-width: 1.2; stroke-linecap: square"/>
    </g>
    <g id="text_30">
     <!-- Pearson Type III -->
     <g transform="translate(76.904146 244.72774) scale(0.1 -0.1)">
      <use xlink:href="#DejaVuSans-33"/>
      <use xlink:href="#DejaVuSans-48" transform="translate(56.734375 0)"/>
      <use xlink:href="#DejaVuSans-44" transform="translate(118.265625 0)"/>
      <use xlink:href="#DejaVuSans-55" transform="translate(179.546875 0)"/>
      <use xlink:href="#DejaVuSans-56" transform="translate(220.65625 0)"/>
      <use xlink:href="#DejaVuSans-52" transform="translate(272.75 0)"/>
      <use xlink:href="#DejaVuSans-51" transform="translate(333.9375 0)"/>
      <use xlink:href="#DejaVuSans-3" transform="translate(397.3125 0)"/>
      <use xlink:href="#DejaVuSans-37" transform="translate(429.09375 0)"/>
      <use xlink:href="#DejaVuSans-5c" transform="translate(474.59375 0)"/>
      <use xlink:href="#DejaVuSans-53" transform="translate(533.78125 0)"/>
      <use xlink:href="#DejaVuSans-48" transform="translate(597.265625 0)"/>
      <use xlink:href="#DejaVuSans-3" transform="translate(658.796875 0)"/>
      <use xlink:href="#DejaVuSans-2c" transform="translate(690.578125 0)"/>
      <use xlink:href="#DejaVuSans-2c" transform="translate(720.078125 0)"/>
      <use xlink:href="#DejaVuSans-2c" transform="translate(749.578125 0)"/>
     </g>
    </g>
    <g id="line2d_50">
     <path d="M 48.904146 256.228521
L 58.904146 256.228521
L 68.904146 256.228521
" style="fill: none; stroke: #000000; stroke-width: 1.2; stroke-linecap: square"/>
    </g>
    <g id="text_31">
     <!-- Weibull -->
     <g transform="translate(76.904146 259.728521) scale(0.1 -0.1)">
      <defs>
       <path id="DejaVuSans-3a" d="M 213 4666
L 850 4666
L 1831 722
L 2809 4666
L 3519 4666
L 4500 722
L 5478 4666
L 6119 4666
L 4947 0
L 4153 0
L 3169 4050
L 2175 0
L 1381 0
L 213 4666
z
" transform="scale(0.015625)"/>
      </defs>
      <use xlink:href="#DejaVuSans-3a"/>
      <use xlink:href="#DejaVuSans-48" transform="translate(93.015625 0)"/>
      <use xlink:href="#DejaVuSans-4c" transform="translate(154.546875 0)"/>
      <use xlink:href="#DejaVuSans-45" transform="translate(182.328125 0)"/>
      <use xlink:href="#DejaVuSans-58" transform="translate(245.8125 0)"/>
      <use xlink:href="#DejaVuSans-4f" transform="translate(309.1875 0)"/>
      <use xlink:href="#DejaVuSans-4f" transform="translate(336.96875 0)"/>
     </g>
    </g>
   </g>
  </g>
 </g>
 <defs>
  <clipPath id="pdf0dfeb248">
   <rect x="39.904146" y="18.118365" width="677.095614" height="415.880614"/>
  </clipPath>
 </defs>
</svg>
